<svg width="96" height="96" xmlns="http://www.w3.org/2000/svg" xmlns:xlink="http://www.w3.org/1999/xlink" xml:space="preserve" overflow="hidden"><defs><clipPath id="clip0"><rect x="259" y="114" width="96" height="96"/></clipPath></defs><g clip-path="url(#clip0)" transform="translate(-259 -114)"><path d="M327 144.2C324.6 144.2 322.6 142.2 322.7 139.7 322.7 137.3 324.7 135.3 327.1 135.3 329.5 135.3 331.5 137.3 331.5 139.7 331.5 140.9 331 142 330.2 142.8 329.3 143.7 328.2 144.2 327 144.2ZM322.7 130.3C320.5 131.1 318.8 132.8 317.7 134.8 316.3 137.5 316.1 140.6 317.2 143.4L322 153.8 325.2 160.4C325.5 161.1 326.2 161.5 327 161.5 327.8 161.5 328.5 161.1 328.8 160.4L332 153.8 336.8 143.5C337.3 142.3 337.5 141 337.5 139.7 337.5 132.7 330.3 127.4 322.7 130.3Z"/><path d="M305 186.8 289 178.8 289 146.2 305 154.2 305 186.8ZM285 178.8 273 184.8 273 152.2 285 146.2 285 178.8ZM340.4 145.2 340.4 145.2 337.9 150.6 341 152.2 341 184.8 329 178.8 329 165.5 325 165.5 325 178.8 309 186.8 309 154.2 316.1 150.6 313.6 145.2 307 148.5 287 138.5 267 148.5 267 194.5 287 184.5 307 194.5 327 184.5 347 194.5 347 148.5 340.4 145.2Z"/></g></svg>