<svg width="96" height="96" xmlns="http://www.w3.org/2000/svg" xmlns:xlink="http://www.w3.org/1999/xlink" xml:space="preserve" overflow="hidden"><defs><clipPath id="clip0"><rect x="618" y="162" width="96" height="96"/></clipPath></defs><g clip-path="url(#clip0)" transform="translate(-618 -162)"><path d="M690.4 165.1 621.1 234.4 641.6 254.9 710.8 185.7 690.4 165.1ZM691.8 196.2 684 204 677.8 197.8 675 200.6 681.2 206.8 673.4 214.6 667.2 208.4 664.4 211.2 670.6 217.4 662.8 225.2 656.6 219 653.8 221.8 660 228 652.2 235.8 646 229.6 643.2 232.4 649.4 238.6 641.7 246.3 629.7 234.3 690.4 173.6 702.4 185.6 694.7 193.3 688.5 187.1 685.6 190 691.8 196.2Z"/></g></svg>